<svg width="216" height="69" viewBox="0 0 216 69" fill="none" xmlns="http://www.w3.org/2000/svg">
<path d="M34.1791 15.9586H26.2306C23.846 15.9586 22.0576 14.0125 22.0576 11.8717V4.08697C22.0576 1.75156 24.0447 0 26.2306 0H34.1791C36.5636 0 38.352 1.94618 38.352 4.08697V11.8717C38.352 14.0125 36.5636 15.9586 34.1791 15.9586Z" fill="#0D6EB6"/>
<path d="M13.7112 33.2801H4.7691C2.18584 33.2801 0 31.1393 0 28.6093V19.8515C0 17.3215 2.18584 15.1807 4.7691 15.1807H13.7112C16.2944 15.1807 18.4803 17.3215 18.4803 19.8515V28.6093C18.4803 31.1393 16.2944 33.2801 13.7112 33.2801Z" fill="#72217B"/>
<path d="M12.7175 51.3791H7.35227C5.76257 51.3791 4.37158 50.0168 4.37158 48.4598V43.2052C4.37158 41.6482 5.76257 40.2859 7.35227 40.2859H12.7175C14.3072 40.2859 15.6982 41.6482 15.6982 43.2052V48.4598C15.6982 50.2114 14.5059 51.3791 12.7175 51.3791Z" fill="#B02383"/>
<path d="M27.421 68.3101H21.0622C19.0751 68.3101 17.6841 66.7532 17.6841 65.0016V58.7738C17.6841 56.8277 19.2738 55.4653 21.0622 55.4653H27.421C29.4081 55.4653 30.7991 57.0223 30.7991 58.7738V65.0016C30.7991 66.7532 29.4081 68.3101 27.421 68.3101Z" fill="#D72B80"/>
<path d="M50.8705 19.072H46.4988C45.1078 19.072 44.1143 18.099 44.1143 16.7366V12.455C44.1143 11.0927 45.1078 10.1196 46.4988 10.1196H50.8705C52.2615 10.1196 53.255 11.0927 53.255 12.455V16.7366C53.255 18.099 52.2615 19.072 50.8705 19.072Z" fill="#D72B80"/>
<path d="M148.438 21.9915C149.829 21.9915 151.022 20.8237 151.022 19.4614C151.022 18.0991 149.829 16.9314 148.438 16.9314C147.047 16.9314 145.855 18.0991 145.855 19.4614C145.855 20.8237 147.047 21.9915 148.438 21.9915Z" fill="#00458F"/>
<path d="M54.6447 48.8492C54.2472 49.4331 53.6511 49.6277 52.8562 49.6277C52.4588 49.6277 52.0614 49.6277 51.664 49.4331C51.0678 49.0438 50.6704 48.46 50.6704 47.6815C50.6704 47.2923 50.8691 47.0977 50.8691 46.7084L56.8305 37.5614L50.8691 28.4144C50.6704 28.2198 50.6704 27.8305 50.6704 27.4413C50.6704 26.8574 51.0678 26.079 51.664 25.6897C52.0614 25.4951 52.2601 25.4951 52.6575 25.4951C53.2537 25.4951 54.0485 25.6897 54.4459 26.2736L59.215 33.8637L64.1829 26.2736C64.5803 25.6897 65.1764 25.4951 65.9713 25.4951C66.3687 25.4951 66.7661 25.4951 66.9648 25.6897C67.561 26.079 67.9584 26.6628 67.9584 27.4413C67.9584 27.8305 67.9584 28.2198 67.7597 28.4144L61.7983 37.5614L67.7597 46.7084C67.9584 46.903 67.9584 47.2923 67.9584 47.6815C67.9584 48.46 67.561 49.0438 66.9648 49.4331C66.5674 49.6277 66.17 49.6277 65.7726 49.6277C65.1764 49.6277 64.3816 49.4331 63.9841 48.8492L59.0163 41.4538L54.6447 48.8492Z" fill="#00458F"/>
<path d="M75.9083 28.0245C78.0942 26.0783 81.0748 24.9106 84.453 24.9106C91.6066 24.9106 97.3693 30.5546 97.3693 37.5608C97.3693 44.3724 91.6066 50.0163 84.453 50.0163C81.2736 50.0163 78.0942 48.8486 75.9083 46.9024V57.6064C75.9083 58.5795 74.9148 59.5526 73.7225 59.5526C72.7289 59.5526 71.7354 58.5795 71.7354 57.6064V27.0514C71.7354 26.0783 72.7289 25.1053 73.7225 25.1053C74.9148 25.1053 75.9083 26.0783 75.9083 27.0514V28.0245ZM84.453 28.9976C79.6839 28.9976 75.9083 32.6953 75.9083 37.3662C75.9083 42.037 79.6839 45.7347 84.453 45.7347C89.2221 45.7347 92.9976 42.037 92.9976 37.3662C92.9976 32.6953 89.2221 28.9976 84.453 28.9976Z" fill="#00458F"/>
<path d="M133.731 35.2254V47.8755C133.731 48.8486 132.737 49.8217 131.743 49.8217C130.551 49.8217 129.558 48.8486 129.558 47.8755V27.0514C129.558 26.0783 130.551 25.1053 131.743 25.1053C132.737 25.1053 133.731 25.8837 133.731 27.0514C135.519 25.6891 137.705 25.1053 140.089 24.9106C141.48 24.9106 142.474 25.8837 142.474 26.8568C142.474 28.0245 141.48 28.9976 140.089 28.9976C136.711 29.1922 133.731 30.3599 133.731 35.2254Z" fill="#00458F"/>
<path d="M148.44 25.1052C147.248 25.1052 146.254 26.0783 146.254 27.0514V47.6809C146.254 48.654 147.248 49.627 148.44 49.627C149.434 49.627 150.427 48.654 150.427 47.6809V27.0514C150.626 26.0783 149.434 25.1052 148.44 25.1052Z" fill="#00458F"/>
<path d="M175.461 27.0527C175.461 26.0796 176.455 25.1065 177.647 25.1065C178.64 25.1065 179.634 26.0796 179.634 27.0527V47.6822C179.634 48.6553 178.64 49.6283 177.647 49.6283C176.455 49.6283 175.461 48.6553 175.461 47.6822V46.7091C173.275 48.6553 170.294 49.823 166.916 49.823C159.763 49.823 154 44.179 154 37.1728C154 30.3612 159.763 24.7173 166.916 24.7173C170.096 24.7173 173.076 25.885 175.461 27.8312V27.0527ZM166.916 45.736C171.685 45.736 175.461 42.0383 175.461 37.3674C175.461 32.6966 171.685 28.9989 166.916 28.9989C162.147 28.9989 158.372 32.6966 158.372 37.3674C158.173 42.0383 161.949 45.736 166.916 45.736Z" fill="#00458F"/>
<path d="M201.097 35.42C201.097 31.9169 198.116 28.9976 194.539 28.9976C191.161 28.9976 187.982 30.3599 187.982 35.2254V47.8755C187.982 48.8486 186.988 49.8217 185.994 49.8217C184.802 49.8217 183.809 48.8486 183.809 47.8755V27.0514C183.809 26.0783 184.802 25.1053 185.994 25.1053C186.988 25.1053 187.982 25.8837 187.982 27.0514C189.77 25.6891 191.956 24.9106 194.539 24.9106C200.302 24.9106 205.468 29.3868 205.468 34.8361V47.6809C205.468 48.654 204.475 49.6271 203.481 49.6271C202.289 49.6271 201.295 48.654 201.295 47.6809V35.42H201.097Z" fill="#00458F"/>
<path d="M49.6788 36.7828C49.6788 30.3604 43.7175 24.9111 36.9612 24.9111C29.8076 24.9111 24.0449 30.555 24.0449 37.3667C24.0449 44.3729 29.8076 50.0168 36.9612 50.0168C40.3393 50.0168 43.5187 48.6545 45.9033 46.5137C46.3007 46.1245 46.6981 45.5406 46.6981 44.9567C46.6981 43.789 45.7046 42.816 44.5123 42.816C43.9162 42.816 43.32 43.2052 42.9226 43.5944C41.5316 45.1514 39.3458 45.7352 37.1599 45.7352C32.987 45.7352 29.4102 42.816 28.6153 38.9236H47.6917C47.6917 38.9236 47.6917 38.9236 47.8904 38.9236H48.0891C48.884 38.729 49.6788 37.7559 49.6788 36.7828ZM36.9612 28.9981C40.7368 28.9981 43.9162 31.3335 45.1084 34.8366H28.814C29.8076 31.5281 32.987 28.9981 36.9612 28.9981Z" fill="#00458F"/>
<path d="M125.786 36.7828C125.588 30.3604 119.825 24.9111 113.069 24.9111C105.915 24.9111 100.152 30.555 100.152 37.3667C100.152 44.3729 105.915 50.0168 113.069 50.0168C116.447 50.0168 119.626 48.6545 122.011 46.5137C122.408 46.1245 122.806 45.5406 122.806 44.9567C122.806 43.789 121.812 42.816 120.62 42.816C120.024 42.816 119.427 43.2052 119.03 43.5944C117.639 45.1514 115.453 45.7352 113.267 45.7352C109.094 45.7352 105.518 42.816 104.723 38.9236H123.799H123.998C124.991 38.729 125.786 37.7559 125.786 36.7828ZM113.069 28.9981C116.844 28.9981 120.024 31.3335 121.216 34.8366H104.921C106.114 31.5281 109.293 28.9981 113.069 28.9981Z" fill="#00458F"/>
<path d="M209.84 49.8222C209.641 49.8222 209.442 49.6276 209.442 49.433V45.9298H208.647C208.449 45.9298 208.25 45.7352 208.25 45.5406C208.25 45.346 208.449 45.1514 208.647 45.1514H211.032C211.231 45.1514 211.429 45.346 211.429 45.5406C211.429 45.7352 211.231 45.9298 211.032 45.9298H210.237V49.433C210.038 49.6276 210.038 49.8222 209.84 49.8222Z" fill="#00458F"/>
<path d="M213.814 49.8222C213.616 49.8222 213.417 49.6276 213.417 49.6276L212.423 46.7083V49.433C212.423 49.6276 212.225 49.8222 212.026 49.8222C211.827 49.8222 211.628 49.6276 211.628 49.433V45.7352C211.628 45.5406 211.827 45.1514 212.225 45.1514C212.423 45.1514 212.622 45.346 212.821 45.5406L213.814 48.4599L214.808 45.5406C214.808 45.346 215.007 45.1514 215.404 45.1514C215.603 45.1514 216 45.346 216 45.7352V49.433C216 49.6276 215.801 49.8222 215.603 49.8222C215.404 49.8222 215.205 49.6276 215.205 49.433V46.7083C215.007 47.0975 214.808 47.876 214.609 48.4599C214.212 49.6276 214.212 49.6276 214.212 49.6276C214.212 49.6276 214.013 49.8222 213.814 49.8222Z" fill="#00458F"/>
</svg>
