<svg width="52" height="44" viewBox="0 0 52 44" fill="none" xmlns="http://www.w3.org/2000/svg">
<path d="M25.8433 0.0126487C25.5386 0.0595237 25.273 0.243118 25.1245 0.512649L1.12452 42.0751C0.944828 42.3876 0.944828 42.7705 1.12842 43.0791C1.30811 43.3876 1.64014 43.5791 1.99952 43.5751H49.9995C50.3589 43.5791 50.6909 43.3876 50.8706 43.0791C51.0542 42.7705 51.0542 42.3876 50.8745 42.0751L26.8745 0.512649C26.6714 0.145462 26.2573 -0.0537573 25.8433 0.0126487ZM25.9995 3.01265L48.2495 41.5751H3.74952L25.9995 3.01265ZM24.8433 15.4814C24.6284 15.4814 24.4995 15.6103 24.4995 15.8251V30.2939C24.4995 30.5087 24.6284 30.6689 24.8433 30.6689H27.1558C27.3706 30.6689 27.4995 30.5087 27.4995 30.2939V15.8251C27.4995 15.6103 27.3706 15.4814 27.1558 15.4814H24.8433ZM24.6245 33.5439C24.4917 33.5947 24.437 33.7275 24.437 33.8876V36.5126C24.437 36.7275 24.5659 36.8564 24.7808 36.8564H27.2183C27.4331 36.8564 27.562 36.7275 27.562 36.5126V33.8876C27.562 33.6728 27.4331 33.5439 27.2183 33.5439H24.7808C24.7261 33.5439 24.6675 33.5283 24.6245 33.5439Z" fill="black"/>
</svg>
