<svg width="51" height="44" viewBox="0 0 51 44" fill="none" xmlns="http://www.w3.org/2000/svg">
<path d="M24.853 0.0126487C24.5483 0.0595237 24.2827 0.243118 24.1343 0.512649L0.134281 42.0751C-0.0454062 42.3876 -0.0454062 42.7705 0.138187 43.0791C0.317875 43.3876 0.649906 43.5791 1.00928 43.5751H49.0093C49.3687 43.5791 49.7007 43.3876 49.8804 43.0791C50.064 42.7705 50.064 42.3876 49.8843 42.0751L25.8843 0.512649C25.6812 0.145462 25.2671 -0.0537573 24.853 0.0126487ZM25.0093 3.01265L47.2593 41.5751H2.75928L25.0093 3.01265ZM23.853 15.4814C23.6382 15.4814 23.5093 15.6103 23.5093 15.8251V30.2939C23.5093 30.5087 23.6382 30.6689 23.853 30.6689H26.1655C26.3804 30.6689 26.5093 30.5087 26.5093 30.2939V15.8251C26.5093 15.6103 26.3804 15.4814 26.1655 15.4814H23.853ZM23.6343 33.5439C23.5015 33.5947 23.4468 33.7275 23.4468 33.8876V36.5126C23.4468 36.7275 23.5757 36.8564 23.7905 36.8564H26.228C26.4429 36.8564 26.5718 36.7275 26.5718 36.5126V33.8876C26.5718 33.6728 26.4429 33.5439 26.228 33.5439H23.7905C23.7358 33.5439 23.6773 33.5283 23.6343 33.5439Z" fill="#E6E6E6"/>
</svg>
