<svg width="246" height="61" viewBox="0 0 246 61" fill="none" xmlns="http://www.w3.org/2000/svg">
<path d="M17.9552 0H24.0345C27.0035 0.141379 30.1138 0.282759 33.0828 0.989656C35.0621 1.41379 37.0414 2.12069 38.5966 3.53449C39.7276 4.66552 40.5759 6.2207 41 7.77587C41.5656 9.89656 41.7069 12.1586 41.8483 14.4207V25.4483C41.8483 28.1345 41.7069 30.9621 41 33.6483C40.5759 35.4862 39.7276 37.1828 38.3138 38.4552C36.7587 39.7276 34.9207 40.2931 33.0828 40.7173C29.4069 41.5656 25.8724 41.5656 22.1966 41.7069C17.9552 41.7069 13.7138 41.7069 9.47242 40.8587C7.63449 40.4345 5.79656 40.0104 4.1 38.8793C2.54483 37.6069 1.55517 35.9104 0.989656 33.9311C0.141379 30.9621 0.141379 27.8517 0 24.7414V16.9655C0.141379 14.1379 0.141379 11.3104 0.706897 8.62415C1.13104 6.92759 1.69655 5.37242 2.82759 3.95862C4.1 2.54483 6.07932 1.69655 7.91725 1.13104C11.169 0.282759 14.5621 0.141379 17.9552 0ZM17.3897 6.36207C16.4 7.35173 15.8345 8.76552 15.8345 10.1793H17.9552C17.9552 9.33104 18.3793 8.34139 19.2276 7.91725C20.0759 7.21035 21.3483 7.06897 22.3379 7.63449C23.3276 8.05863 23.8931 9.18966 23.8931 10.1793H26.1552C26.218 9.13791 25.9593 8.10234 25.4141 7.21284C24.8689 6.32335 24.0634 5.6229 23.1069 5.20634C22.1504 4.78978 21.0889 4.67725 20.0663 4.88397C19.0437 5.09069 18.1093 5.60668 17.3897 6.36207ZM13.7138 25.0242H16.1173V35.9104H19.7931V27.9931H22.1966V35.9104H25.8724V25.0242H28.2759V12.0173H13.7138V25.0242Z" fill="#D0202E"/>
<path d="M19.0859 16.9655C19.0859 15.8344 20.217 14.9862 21.348 15.2689C22.3377 15.4103 23.0446 16.5413 22.7618 17.531C22.6204 18.0965 22.1963 18.5206 21.7721 18.8034V21.7724H20.0756V18.8034C19.5101 18.3793 18.9446 17.6724 19.0859 16.9655Z" fill="#D0202E"/>
<path d="M78.183 0.282715H85.9588V7.06893H78.183V0.282715ZM96.4209 2.40341C97.6933 1.41375 99.3899 1.27237 100.945 1.27237H107.731V7.21031H103.773C103.349 7.21031 102.924 7.21031 102.5 7.49307C102.217 7.63445 102.076 8.05858 102.076 8.34134L101.935 11.0276H107.731V17.1069H102.076V39.1621H94.1589V17.1069H89.9175V10.8862H94.1589C94.1589 8.90686 94.0175 6.92755 94.583 4.94824C94.8658 3.95858 95.5726 3.1103 96.4209 2.40341ZM217.724 2.26203H221.542V23.6103H224.369L234.407 11.5931L239.073 11.7345L227.338 25.0241L239.497 39.0207L234.69 39.1621L224.228 26.8621H221.542V39.1621H217.724V2.26203ZM49.2002 3.25168H57.5416V32.5172H74.6485V39.1621H49.2002V3.25168ZM139.824 3.25168H143.924V35.6276H162.162V39.1621H139.824V3.25168ZM241.335 11.3103C241.193 10.1793 241.9 8.90686 243.031 8.6241C244.304 8.34134 245.859 9.18962 246 10.462V11.4517C245.859 12.4413 244.869 13.2896 243.738 13.2896C242.607 13.2896 241.476 12.4413 241.335 11.3103ZM243.031 9.04824C242.042 9.331 241.476 10.6034 241.759 11.5931C242.042 12.5827 243.456 13.1482 244.445 12.8655C245.435 12.4413 246 11.0276 245.576 10.0379C245.152 9.18962 244.021 8.76548 243.031 9.04824Z" fill="#211E20"/>
<path d="M242.89 9.61371C243.314 9.61371 244.021 9.47233 244.445 9.75509C245.011 10.1792 244.728 10.8861 244.162 11.1689L244.728 12.1585H244.304L243.738 11.0275L243.173 11.1689V12.1585H242.89V9.61371ZM243.173 9.89647V10.7447H244.162C244.445 10.6034 244.445 10.0379 244.162 9.89647H243.173ZM78.183 10.8861H85.9588V39.162H78.183V10.8861ZM113.811 11.593C114.942 11.0275 116.355 10.8861 117.628 10.8861H127.949C129.504 10.8861 131.059 11.0275 132.331 11.8758C133.462 12.7241 134.311 13.8551 134.735 15.2689C135.159 16.8241 135.159 18.3792 135.3 20.0758L135.442 26.1551L135.159 27.0034L134.169 27.2861H117.486C117.486 28.6999 117.486 30.2551 117.769 31.6689C117.911 32.093 117.911 32.6586 118.476 32.9413C118.9 33.2241 119.607 33.2241 120.173 33.2241H126.111C126.676 33.2241 127.524 33.2241 127.807 32.5172C128.231 31.8103 128.09 30.962 128.09 30.2551H135.442C135.3 32.093 135.3 33.931 134.593 35.7689C134.028 37.1827 132.755 38.4551 131.2 38.7379C129.786 39.162 128.231 39.0206 126.817 39.162H118.617C116.921 39.162 115.083 39.162 113.528 38.1724C111.973 37.3241 110.983 35.7689 110.559 33.931C109.852 31.1034 109.852 27.993 109.852 25.0241C109.852 22.762 109.852 20.3586 110.135 18.0965C110.276 16.6827 110.559 15.1275 111.407 13.8551C111.973 13.0068 112.68 12.0172 113.811 11.593ZM118.476 16.9654C118.052 17.1068 117.911 17.6723 117.769 18.0965C117.486 19.5103 117.628 20.9241 117.486 22.3379H127.949C127.807 20.9241 127.949 19.3689 127.524 17.9551C127.524 17.531 127.383 17.1068 126.959 16.9654C126.535 16.6827 125.969 16.6827 125.404 16.6827H120.455C119.749 16.6827 119.183 16.6827 118.476 16.9654ZM195.245 12.2999C196.376 11.7344 197.507 11.7344 198.78 11.7344H205.99C207.262 11.593 208.535 11.593 209.807 12.0172C211.221 12.4413 212.211 13.5723 212.776 14.8448C213.342 16.6827 213.342 18.662 213.483 20.6413H209.666C209.666 19.2275 209.666 17.9551 209.242 16.5413C208.959 15.693 207.969 15.1275 206.98 15.1275H200.335C199.345 15.1275 198.355 14.9861 197.366 15.2689C196.518 15.5517 196.093 16.3999 195.811 17.1068L195.387 20.9241V27.1448C195.387 29.1241 195.387 30.962 195.669 32.9413C195.811 33.7896 196.093 34.6379 196.8 35.062C197.507 35.6275 198.497 35.6275 199.345 35.6275H206.555C207.262 35.6275 208.111 35.6275 208.676 35.062C209.242 34.6379 209.383 33.7896 209.524 33.0827C209.807 32.093 209.807 30.962 209.807 29.831H213.624C213.483 31.6689 213.483 33.5068 212.918 35.2034C212.635 36.4758 211.787 37.7482 210.655 38.4551C209.524 39.0206 208.393 39.0206 207.262 39.0206L200.9 39.162C199.204 39.0206 197.507 39.162 195.952 38.7379C194.962 38.4551 194.114 37.8896 193.549 37.1827C192.559 36.193 192.135 34.7793 191.993 33.5068C191.569 30.8206 191.569 27.993 191.569 25.3068C191.428 23.1861 191.569 21.0654 191.711 18.9448C191.852 17.3896 192.135 15.8344 192.842 14.562C193.407 13.5723 194.114 12.7241 195.245 12.2999ZM170.362 11.7344H180.683C182.097 11.7344 183.652 11.8758 184.783 12.7241C185.49 13.431 186.197 14.1379 186.621 15.1275C187.187 16.5413 187.328 18.0965 187.469 19.6517C187.842 25.0912 187.509 30.5561 186.48 35.9103C186.055 36.7586 185.349 37.4655 184.642 38.031C183.511 38.8793 181.955 39.0206 180.542 39.0206L173.19 39.162C171.635 39.162 170.221 39.162 168.666 38.5965C167.535 38.3137 166.545 37.3241 165.98 36.193C165.131 34.9206 164.99 33.3655 164.849 31.9517C164.566 29.5482 164.566 27.1448 164.566 24.7413C164.566 22.3379 164.566 20.0758 164.99 17.6723C165.131 16.1172 165.697 14.4206 166.969 13.2896C167.818 12.2999 169.09 11.8758 170.362 11.7344ZM171.069 15.1275C170.504 15.2689 169.797 15.5517 169.373 16.1172C168.807 16.9654 168.807 17.9551 168.666 18.8034C168.383 21.0654 168.383 23.4689 168.383 25.731C168.383 27.993 168.383 30.1137 168.666 32.3758C168.807 33.2241 168.949 34.2137 169.655 34.9206C170.362 35.4862 171.352 35.6275 172.2 35.6275H180.118C180.966 35.6275 182.097 35.4862 182.662 34.7793C183.369 33.931 183.511 32.7999 183.652 31.8103C184.077 27.388 184.03 22.9329 183.511 18.5206C183.369 17.531 183.228 16.3999 182.521 15.693C181.814 15.1275 180.966 15.1275 180.259 15.1275H171.069ZM134.735 48.6344H136.714V50.1896H134.735V48.6344ZM223.804 48.6344H225.783V50.1896H223.804V48.6344ZM20.6415 48.9172H22.4795V58.3896H20.6415V48.9172ZM45.6657 48.9172H47.5036V58.3896H45.6657V48.9172ZM71.9623 48.9172H73.8002V58.3896H71.9623V48.9172ZM198.78 48.9172H200.618V58.3896H198.78V57.4C198.214 57.8241 197.649 58.3896 196.942 58.3896C196.235 58.2482 195.528 58.3896 194.821 57.9655C194.255 57.6827 194.255 56.8344 194.255 56.2689V52.7344C194.397 52.1689 194.821 51.462 195.387 51.462L197.224 51.3206C197.79 51.462 198.355 51.8862 198.78 52.1689V48.9172ZM196.518 52.8758C196.235 52.8758 196.093 53.1586 196.093 53.4413V56.1275C196.093 56.4103 196.235 56.8344 196.518 56.8344C197.224 56.9758 198.073 56.8344 198.78 56.5517V53.0172C198.073 52.7344 197.366 52.7344 196.518 52.8758ZM3.81738 49.4827H9.33118C9.8967 49.3413 10.6036 49.7655 10.8864 50.331C11.1691 51.3206 11.1691 52.3103 10.8864 53.3C10.6036 53.8655 10.0381 54.0069 9.47256 54.1482C10.0381 54.431 10.745 54.5724 10.8864 55.2793L11.0277 58.2482L9.04842 58.3896L8.90704 55.562C8.90704 55.2793 8.4829 54.9965 8.20015 54.8551H5.65532V58.3896H3.81738V49.4827ZM5.65532 50.8965V53.4413H8.05877C8.34152 53.4413 8.76566 53.4413 8.90704 53.1586V51.462C8.90704 51.1793 8.76566 50.8965 8.4829 50.8965H5.65532ZM86.5244 58.3896V49.4827L91.3313 49.3413C91.8968 49.4827 92.6037 49.3413 93.0278 49.7655C93.5933 50.331 93.5933 51.1793 93.7347 51.8862C93.7347 52.7344 93.7347 53.5827 93.3106 54.431C93.0278 54.9965 92.4623 55.2793 91.8968 55.2793H88.5037V58.3896H86.5244ZM88.5037 50.8965V53.7241H91.0485C91.3313 53.7241 91.614 53.4413 91.614 53.1586V51.462C91.614 51.1793 91.3313 50.8965 91.0485 50.8965H88.5037ZM156.931 49.4827H159.052L161.031 53.1586C161.88 52.0275 162.445 50.6138 163.152 49.4827H165.131L162.586 54.1482C162.304 54.5724 161.88 54.8551 162.021 55.4207V58.3896H160.042V55.4207L159.9 54.7138L156.931 49.4827ZM190.438 49.4827H192.418V58.3896H190.438V49.4827ZM40.576 49.6241H42.5553V51.3206H44.2519V52.7344H42.5553V56.8344H44.1105V58.1069C43.2622 58.2482 42.2726 58.531 41.4243 58.2482C40.8588 58.1069 40.576 57.6827 40.7174 57.2586L40.576 52.7344H39.5864V51.3206H40.576V49.6241ZM109.004 49.6241H110.842V51.3206H112.538V52.7344H110.842V56.2689L110.983 56.8344H112.538V58.1069C111.69 58.2482 110.7 58.531 109.711 58.2482C109.286 58.2482 109.004 57.6827 109.004 57.2586V52.7344H107.873V51.3206H109.004V49.6241ZM129.786 49.6241H131.624V51.3206H133.321V52.7344H131.624V56.1275L131.766 56.8344H133.321V58.1069C132.331 58.2482 131.342 58.531 130.493 58.2482C129.928 58.1069 129.786 57.5413 129.786 57.1172V52.7344H128.655V51.3206H129.786V49.6241ZM218.855 49.6241H220.693V51.3206H222.39V52.7344H220.693V56.2689C220.693 56.4103 220.552 56.8344 220.835 56.8344H222.39V58.1069C221.4 58.2482 220.411 58.531 219.421 58.2482C218.997 58.1069 218.714 57.5413 218.855 57.1172V52.7344H217.724V51.3206H218.714L218.855 49.6241ZM228.045 49.6241H229.883V51.3206H231.58V52.7344H229.883V56.6931L230.024 56.8344H231.58V58.1069C230.59 58.2482 229.6 58.531 228.611 58.2482C228.045 58.1069 228.045 57.4 228.045 56.9758V52.7344H226.914V51.3206H227.904L228.045 49.6241ZM13.9967 51.462L16.1174 51.3206L17.9553 51.462C18.5208 51.6034 18.8036 52.1689 18.945 52.7344V55.1379L14.4208 55.2793L14.5622 56.6931C14.7036 56.9758 14.9864 56.9758 15.2691 56.9758H16.9657C17.3898 56.8344 17.2484 56.4103 17.2484 56.1275H18.945C18.945 56.8344 18.945 57.9655 18.0967 58.2482L15.2691 58.3896C14.5622 58.2482 13.7139 58.3896 13.2898 57.8241C12.7243 57.2586 12.7243 56.4103 12.7243 55.7034C12.7243 54.7138 12.5829 53.7241 12.8657 52.5931C13.007 52.0275 13.2898 51.462 13.9967 51.462ZM14.5622 52.8758L14.4208 54.2896H17.2484L17.107 52.8758C16.8243 52.5931 16.2588 52.7344 15.8346 52.5931C15.4105 52.7344 14.845 52.5931 14.5622 52.8758ZM24.7415 51.7448C25.1657 51.3206 25.7312 51.3206 26.2967 51.3206H28.9829C29.6898 51.462 30.114 51.8862 30.2553 52.5931L30.3967 55.1379L25.8726 55.2793L26.014 56.8344L26.8622 56.9758H28.4174C28.7002 56.8344 28.7002 56.4103 28.7002 56.1275H30.3967C30.3967 56.6931 30.3967 57.4 29.9726 57.9655C29.5484 58.3896 28.9829 58.2482 28.4174 58.3896L25.5898 58.2482C24.8829 58.2482 24.3174 57.6827 24.3174 57.1172C24.0346 55.9862 24.176 54.8551 24.176 53.8655C24.176 53.1586 24.176 52.3103 24.7415 51.7448ZM26.1553 52.7344C25.7312 53.1586 26.014 53.7241 25.8726 54.2896H28.7002C28.5588 53.7241 28.7002 53.1586 28.4174 52.7344H26.1553ZM32.0933 51.3206H33.9312V52.3103C34.3553 51.8862 34.9209 51.3206 35.6278 51.3206L37.6071 51.462C38.1726 51.7448 38.314 52.3103 38.314 52.8758V58.3896H36.476V53.5827C36.476 53.3 36.3347 52.8758 36.0519 52.8758C35.345 52.7344 34.4967 52.7344 33.9312 53.1586V58.3896H32.0933V51.3206ZM49.4829 52.0275C49.7657 51.6034 50.3312 51.3206 50.8967 51.3206H54.0071C54.714 51.3206 55.1381 51.8862 55.2795 52.5931L55.4209 55.1379L50.8967 55.2793L51.0381 56.6931C51.0381 56.9758 51.3209 56.9758 51.6036 56.9758H53.4416C53.7243 56.8344 53.7243 56.4103 53.7243 56.1275H55.4209C55.4209 56.6931 55.4209 57.4 54.9967 57.9655C54.4312 58.3896 53.7243 58.2482 53.1588 58.3896L50.4726 58.2482C49.9071 58.2482 49.4829 57.6827 49.3416 57.1172C49.0588 56.1275 49.2002 55.2793 49.0588 54.431C49.2002 53.5827 49.0588 52.7344 49.4829 52.0275ZM51.0381 52.7344L50.8967 54.2896H53.7243C53.5829 53.7241 53.8657 52.5931 53.0174 52.7344H51.0381ZM57.2588 51.8862C57.4002 51.6034 57.8243 51.3206 58.2485 51.3206H61.3588C61.783 51.3206 62.2071 51.3206 62.4898 51.7448C62.7726 52.1689 62.7726 52.8758 62.7726 53.4413H61.2174C61.0761 53.1586 61.2174 52.5931 60.7933 52.7344H58.814C58.3898 53.0172 58.5312 54.0069 59.0967 54.0069L62.0657 54.2896C62.4898 54.431 62.7726 54.7138 62.7726 54.9965V57.4C62.6312 57.9655 62.2071 58.2482 61.783 58.2482L58.5312 58.3896C58.1071 58.2482 57.5416 58.3896 57.1174 57.9655C56.8347 57.4 56.8347 56.8344 56.8347 56.1275L58.3898 56.2689C58.5312 56.4103 58.3898 56.9758 58.814 56.9758H61.0761C61.3588 56.6931 61.3588 55.9862 61.0761 55.7034L57.6829 55.1379C57.2588 55.1379 56.976 54.5724 56.976 54.1482C56.976 53.4413 56.8347 52.5931 57.2588 51.8862ZM64.6105 52.1689C64.7519 51.7448 65.1761 51.3206 65.6002 51.3206H68.8519C69.2761 51.3206 69.8416 51.462 69.983 51.8862C70.2657 52.3103 70.2657 52.8758 70.2657 53.4413H68.5692C68.5692 53.1586 68.7105 52.7344 68.2864 52.7344H66.1657C66.0243 53.0172 65.883 53.5827 66.3071 53.8655L69.7002 54.431C70.2657 54.5724 70.2657 55.2793 70.4071 55.8448C70.4071 56.5517 70.4071 57.4 69.8416 57.9655C69.4174 58.3896 68.5692 58.2482 68.0036 58.3896L65.0347 58.2482C64.1864 57.9655 64.3278 56.8344 64.3278 56.2689H65.883C66.0243 56.4103 65.883 56.9758 66.3071 56.9758H68.5692C68.7105 56.5517 68.8519 55.9862 68.4278 55.7034C67.4381 55.4207 66.3071 55.4207 65.1761 55.2793C64.7519 55.1379 64.4692 54.7138 64.4692 54.2896C64.3278 53.5827 64.3278 52.8758 64.6105 52.1689ZM75.0726 51.3206H77.0519C77.6174 52.8758 78.0416 54.5724 78.7485 56.1275L80.1623 51.3206H82.0002L79.314 59.3793C79.1726 59.9448 78.7485 60.2276 78.183 60.3689H75.9209L76.0623 58.9551H77.4761L77.7588 58.3896L75.0726 51.3206ZM95.0071 51.3206H96.9864V52.4517L98.1175 51.462L99.3899 51.3206V53.1586C98.5416 53.1586 97.6933 53.1586 96.845 53.4413L96.9864 58.3896H95.0071V51.3206ZM101.652 51.462L104.338 51.3206C104.904 51.3206 105.752 51.3206 106.176 51.7448C106.742 52.3103 106.742 53.1586 106.742 53.8655V56.8344C106.6 57.5413 106.176 58.1069 105.611 58.2482L103.349 58.3896C102.783 58.2482 102.076 58.3896 101.511 58.1069C100.804 57.9655 100.521 57.2586 100.521 56.5517V52.8758C100.662 52.1689 100.945 51.462 101.652 51.462ZM102.5 52.8758L102.359 53.4413V56.2689C102.359 56.4103 102.359 56.8344 102.642 56.8344H104.621C105.045 56.6931 104.904 56.1275 104.904 55.8448V53.1586C104.904 52.7344 104.48 52.7344 104.197 52.7344L102.5 52.8758ZM114.517 51.7448C114.8 51.3206 115.366 51.3206 115.931 51.3206H118.759C119.324 51.3206 119.89 51.8862 120.031 52.4517V55.1379L115.649 55.2793L115.79 56.8344C116.497 57.1172 117.345 56.9758 118.052 56.9758C118.476 56.9758 118.335 56.4103 118.476 56.1275H120.173C120.031 56.6931 120.173 57.4 119.749 57.9655C119.183 58.3896 118.476 58.2482 117.911 58.3896L115.083 58.2482C114.376 58.1069 113.952 57.4 113.952 56.6931V53.1586C113.952 52.5931 114.093 52.0275 114.517 51.7448ZM115.649 54.2896H118.335C118.335 53.7241 118.476 53.1586 118.193 52.7344H115.931C115.507 53.0172 115.649 53.7241 115.649 54.2896ZM122.576 51.462L123.849 51.3206H126.252C126.676 51.3206 127.1 51.462 127.242 51.8862C127.666 52.4517 127.666 53.1586 127.666 53.8655H125.969C125.828 53.4413 125.969 52.8758 125.545 52.7344H123.849C123.566 52.8758 123.424 53.0172 123.424 53.3V56.2689C123.424 56.5517 123.566 56.8344 123.849 56.8344H125.686C126.111 56.6931 125.828 56.1275 125.969 55.7034H127.666C127.666 56.4103 127.666 57.2586 127.242 57.8241C126.959 58.3896 126.252 58.3896 125.686 58.3896L123 58.2482C122.435 58.2482 121.869 57.6827 121.728 57.1172L121.586 55.2793L121.728 52.7344C121.869 52.1689 122.011 51.7448 122.576 51.462ZM134.735 51.3206H136.573V58.3896H134.735V51.3206ZM138.411 51.3206H140.249V52.3103C140.814 51.8862 141.38 51.3206 142.086 51.3206C142.793 51.3206 143.5 51.1793 144.066 51.6034C144.631 51.8862 144.631 52.5931 144.631 53.1586L144.773 58.3896H142.793V53.4413C142.793 53.1586 142.652 52.8758 142.369 52.8758C141.662 52.7344 140.955 52.8758 140.249 53.1586V58.3896H138.411V51.3206ZM146.752 52.0275C147.318 51.1793 148.307 51.3206 149.155 51.3206C149.862 51.3206 150.428 51.7448 150.852 52.1689V51.3206H152.831L152.69 58.2482C152.69 58.8138 152.69 59.3793 152.407 59.8034C152.266 60.2276 151.842 60.2276 151.559 60.3689H147.6C147.318 60.2276 146.893 60.2276 146.752 59.8034L146.611 58.531H148.166C148.307 58.8138 148.307 59.0965 148.59 59.0965H150.286C150.428 59.0965 150.852 59.0965 150.852 58.8138V56.6931C150.428 57.1172 149.862 57.6827 149.155 57.6827C148.307 57.5413 147.318 57.8241 146.752 57.1172C146.328 56.4103 146.328 55.562 146.328 54.7138C146.328 53.8655 146.328 52.8758 146.752 52.0275ZM148.449 52.8758C148.024 53.3 148.166 54.1482 148.166 54.7138C148.166 55.1379 148.024 55.9862 148.59 56.1275C149.438 56.2689 150.145 56.2689 150.852 55.9862V53.0172C150.145 52.7344 149.297 52.5931 148.449 52.8758ZM166.545 51.462L169.09 51.3206C169.655 51.3206 170.362 51.3206 170.786 51.6034C171.352 51.8862 171.493 52.3103 171.635 52.8758V55.8448C171.635 56.5517 171.635 57.2586 171.069 57.8241C170.786 58.2482 170.221 58.2482 169.797 58.3896H167.393C166.969 58.2482 166.404 58.2482 165.98 57.9655C165.555 57.5413 165.414 56.6931 165.414 56.1275V52.7344C165.555 52.1689 165.98 51.462 166.545 51.462ZM167.535 52.8758C167.252 52.8758 167.252 53.1586 167.252 53.3L167.111 55.9862C167.252 56.2689 167.111 56.6931 167.393 56.8344H169.09C169.373 56.8344 169.797 56.8344 169.797 56.5517V53.7241C169.797 53.3 169.797 52.7344 169.373 52.7344L167.535 52.8758ZM173.331 51.3206H175.169V56.1275C175.169 56.4103 175.311 56.6931 175.593 56.8344C176.3 56.9758 177.149 56.8344 177.714 56.5517V51.3206H179.693V58.3896H177.714V57.2586C177.149 57.8241 176.724 58.3896 175.876 58.3896C175.311 58.2482 174.604 58.3896 174.038 58.1069C173.473 57.8241 173.331 57.2586 173.331 56.6931V51.3206ZM181.531 51.3206H183.369V52.4517L184.359 51.462L185.773 51.3206V53.1586C184.924 53.1586 184.076 53.1586 183.228 53.4413L183.369 58.3896H181.531V51.3206ZM203.728 51.3206H206.98C207.545 51.3206 208.252 51.7448 208.393 52.3103C208.676 53.3 208.535 54.2896 208.535 55.1379L204.011 55.2793L204.152 56.8344L204.859 56.9758H206.555C206.98 56.8344 206.838 56.4103 206.838 56.1275H208.535C208.535 56.6931 208.535 57.4 208.111 57.8241C207.828 58.2482 207.262 58.2482 206.838 58.3896H204.293C203.869 58.2482 203.304 58.2482 202.88 57.9655C202.455 57.5413 202.314 56.9758 202.314 56.4103V52.8758C202.455 52.0275 203.021 51.3206 203.728 51.3206ZM204.293 52.7344C203.869 53.1586 204.152 53.7241 204.011 54.2896H206.838C206.697 53.7241 206.838 53.1586 206.555 52.7344H204.293ZM210.231 51.3206H212.069V52.3103C212.635 51.8862 213.059 51.3206 213.907 51.3206C214.614 51.3206 215.321 51.1793 215.887 51.6034C216.452 51.8862 216.452 52.5931 216.452 53.1586V58.3896H214.614V53.7241C214.614 53.4413 214.614 52.8758 214.19 52.8758C213.483 52.7344 212.635 52.7344 212.069 53.1586V58.3896H210.231V51.3206ZM223.804 51.3206H225.642V58.3896H223.804V51.3206ZM232.428 51.3206H234.407C234.973 52.8758 235.397 54.5724 236.104 55.9862L237.518 51.3206H239.497L236.669 59.3793C236.528 59.9448 236.104 60.2276 235.68 60.3689H233.418V58.9551H234.831L235.114 58.2482L232.428 51.3206Z" fill="#211E20"/>
<path d="M17.3897 6.36201C19.0863 4.80684 21.7725 4.66546 23.6104 5.79649C25.1656 6.64477 26.1553 8.4827 26.1553 10.1793H23.8932C23.8932 9.1896 23.3277 8.05856 22.338 7.63443C21.3484 7.06891 20.0759 7.21029 19.2277 7.91719C18.3794 8.34132 17.9553 9.33098 17.9553 10.1793H15.8346C15.8346 8.76546 16.4001 7.35167 17.3897 6.36201ZM13.7139 25.0241V12.0172H28.276V25.0241H25.8725V35.9103H22.1966V27.9931H19.7932V35.9103H16.1173V25.0241H13.7139ZM19.0863 16.9655C18.9449 17.6724 19.5104 18.3793 20.0759 18.8034V21.7724H21.7725V18.8034C22.1966 18.5206 22.6208 18.0965 22.7622 17.531C23.0449 16.5413 22.338 15.4103 21.3484 15.2689C20.2173 14.9862 19.0863 15.8344 19.0863 16.9655Z" fill="white"/>
</svg>
