<svg width="278" height="37" viewBox="0 0 278 37" fill="none" xmlns="http://www.w3.org/2000/svg">
<path d="M49.5122 9.1042H45.7422V26.7842H49.5122V9.1042Z" fill="#53A73E"/>
<path d="M65.6139 8.3242H61.9999V15.0582C60.9859 14.4082 59.7899 14.0702 58.4639 14.0702C56.7479 14.0702 55.2919 14.6942 54.0699 15.9682C52.8479 17.2162 52.2499 18.7502 52.2499 20.5442C52.2499 22.3642 52.8479 23.8982 54.0699 25.1722C55.2919 26.4202 56.7479 27.0442 58.4639 27.0442C59.7899 27.0442 60.9859 26.7062 61.9999 26.0562V26.7842H65.6139V8.3242ZM59.0619 24.0022C58.1259 24.0022 57.3459 23.6642 56.7479 22.9882C56.1499 22.3122 55.8379 21.5062 55.8379 20.5442C55.8379 19.6082 56.1499 18.8022 56.7479 18.1522C57.3459 17.4762 58.1259 17.1382 59.0619 17.1382C60.2839 17.1382 61.2719 17.6062 61.9999 18.5682V22.5462C61.2979 23.5082 60.3099 24.0022 59.0619 24.0022Z" fill="#53A73E"/>
<path d="M80.9872 20.3102C80.9872 18.4642 80.3892 16.9822 79.2192 15.8122C78.0492 14.6422 76.5932 14.0702 74.8252 14.0702C72.8492 14.0702 71.2372 14.6942 70.0152 15.9162C68.7932 17.1382 68.1952 18.6722 68.1952 20.5702C68.1952 22.4422 68.8192 24.0022 70.0412 25.2242C71.2892 26.4462 72.9012 27.0702 74.8772 27.0702C77.8152 27.0702 80.1812 25.5362 80.8312 23.1442H77.0612C76.6712 23.7682 75.9692 24.0802 74.9552 24.0802C73.3172 24.0802 72.2772 23.3522 71.8352 21.8702H80.9092C80.9612 21.5322 80.9872 21.0122 80.9872 20.3102ZM74.7212 17.0342C76.2032 17.0342 77.1912 17.8922 77.3992 19.3482H71.7832C72.1732 17.8142 73.1612 17.0342 74.7212 17.0342Z" fill="#53A73E"/>
<path d="M90.518 13.9402C89.218 13.9402 88.022 14.3562 86.956 15.2142V14.3302H83.342V26.7842H86.956V18.7762C87.814 17.7362 88.724 17.2162 89.686 17.2162C91.376 17.2162 92.364 18.2822 92.364 20.2582V26.7842H95.978V19.9462C95.978 18.1262 95.484 16.6702 94.47 15.5782C93.482 14.4862 92.156 13.9402 90.518 13.9402Z" fill="#53A73E"/>
<path d="M108.031 23.5082C107.173 23.7422 106.471 23.8462 105.925 23.8462C104.469 23.8462 103.741 23.1702 103.741 21.7922V17.3722H108.239V14.3302H103.741V9.8842H100.153V14.3302H97.5273V17.3722H100.153V21.8182C100.153 25.0422 102.129 27.1742 105.145 27.1742C106.159 27.1742 107.277 26.9922 108.499 26.6022L108.031 23.5082Z" fill="#53A73E"/>
<path d="M110.58 9.9362C110.58 11.1062 111.542 12.0162 112.764 12.0162C113.986 12.0162 114.922 11.1062 114.922 9.9362C114.922 8.7142 113.986 7.8042 112.764 7.8042C111.542 7.8042 110.58 8.7142 110.58 9.9362ZM114.584 14.3302H110.97V26.7842H114.584V14.3302Z" fill="#53A73E"/>
<path d="M126.897 23.5082C126.039 23.7422 125.337 23.8462 124.791 23.8462C123.335 23.8462 122.607 23.1702 122.607 21.7922V17.3722H127.105V14.3302H122.607V9.8842H119.019V14.3302H116.393V17.3722H119.019V21.8182C119.019 25.0422 120.995 27.1742 124.011 27.1742C125.025 27.1742 126.143 26.9922 127.365 26.6022L126.897 23.5082Z" fill="#53A73E"/>
<path d="M143.473 14.3042H139.677L136.037 22.8062L132.007 14.3042H128.159L134.217 27.0962L131.799 32.7642H135.595L143.473 14.3042Z" fill="#53A73E"/>
<path d="M155.556 23.5602C153.97 23.5602 152.67 23.0402 151.656 22.0002C150.642 20.9602 150.122 19.6082 150.122 17.9442C150.122 16.2802 150.642 14.9282 151.656 13.8882C152.67 12.8482 153.97 12.3282 155.556 12.3282C158.078 12.3282 159.794 13.7322 160.418 16.2542H164.266C163.902 13.9922 162.94 12.1722 161.354 10.7942C159.768 9.4162 157.844 8.7402 155.556 8.7402C152.956 8.7402 150.772 9.6242 148.978 11.3662C147.21 13.1082 146.326 15.2922 146.326 17.9442C146.326 20.5962 147.21 22.8062 148.978 24.5482C150.772 26.2902 152.956 27.1482 155.556 27.1482C157.844 27.1482 159.768 26.4722 161.354 25.0942C162.94 23.7162 163.902 21.8962 164.266 19.6342H160.418C159.794 22.1562 158.078 23.5602 155.556 23.5602Z" fill="#5C636A"/>
<path d="M174.354 13.9402C173.054 13.9402 171.858 14.3562 170.792 15.2142V8.3242H167.178V26.7842H170.792V18.7762C171.65 17.7362 172.56 17.2162 173.522 17.2162C175.212 17.2162 176.2 18.2822 176.2 20.2582V26.7842H179.814V19.9462C179.814 18.1262 179.32 16.6702 178.306 15.5782C177.318 14.4862 175.992 13.9402 174.354 13.9402Z" fill="#5C636A"/>
<path d="M188.877 14.0702C186.953 14.0702 185.367 14.6942 184.093 15.9162C182.819 17.1382 182.195 18.6722 182.195 20.5702C182.195 22.4682 182.819 24.0542 184.093 25.3022C185.367 26.5502 186.953 27.1742 188.877 27.1742C190.775 27.1742 192.361 26.5502 193.609 25.3022C194.883 24.0542 195.507 22.4682 195.507 20.5702C195.507 18.6722 194.883 17.1382 193.609 15.9162C192.361 14.6942 190.775 14.0702 188.877 14.0702ZM188.877 23.9502C187.005 23.9502 185.757 22.4682 185.757 20.5702C185.757 18.6982 187.005 17.2942 188.877 17.2942C190.723 17.2942 191.945 18.6982 191.945 20.5702C191.945 22.4682 190.723 23.9502 188.877 23.9502Z" fill="#5C636A"/>
<path d="M197.818 9.9362C197.818 11.1062 198.78 12.0162 200.002 12.0162C201.224 12.0162 202.16 11.1062 202.16 9.9362C202.16 8.7142 201.224 7.8042 200.002 7.8042C198.78 7.8042 197.818 8.7142 197.818 9.9362ZM201.822 14.3302H198.208V26.7842H201.822V14.3302Z" fill="#5C636A"/>
<path d="M211.145 23.8462C209.273 23.8462 208.025 22.4422 208.025 20.5702C208.025 18.6982 209.273 17.2682 211.145 17.2682C212.523 17.2682 213.511 18.0222 213.797 19.2442H217.411C217.229 17.7102 216.553 16.4882 215.383 15.5262C214.213 14.5642 212.783 14.0702 211.145 14.0702C209.247 14.0702 207.661 14.6942 206.387 15.9422C205.113 17.1642 204.463 18.7242 204.463 20.5702C204.463 22.4162 205.113 23.9762 206.387 25.2242C207.661 26.4462 209.247 27.0702 211.145 27.0702C212.783 27.0702 214.213 26.6022 215.383 25.6402C216.553 24.6782 217.229 23.4302 217.411 21.8962H213.797C213.511 23.1182 212.523 23.8462 211.145 23.8462Z" fill="#5C636A"/>
<path d="M232.184 20.3102C232.184 18.4642 231.586 16.9822 230.416 15.8122C229.246 14.6422 227.79 14.0702 226.022 14.0702C224.046 14.0702 222.434 14.6942 221.212 15.9162C219.99 17.1382 219.392 18.6722 219.392 20.5702C219.392 22.4422 220.016 24.0022 221.238 25.2242C222.486 26.4462 224.098 27.0702 226.074 27.0702C229.012 27.0702 231.378 25.5362 232.028 23.1442H228.258C227.868 23.7682 227.166 24.0802 226.152 24.0802C224.514 24.0802 223.474 23.3522 223.032 21.8702H232.106C232.158 21.5322 232.184 21.0122 232.184 20.3102ZM225.918 17.0342C227.4 17.0342 228.388 17.8922 228.596 19.3482H222.98C223.37 17.8142 224.358 17.0342 225.918 17.0342Z" fill="#5C636A"/>
<path d="M235.611 27.2782C236.833 27.2782 237.769 26.3682 237.769 25.1982C237.769 24.0282 236.833 23.1442 235.611 23.1442C234.441 23.1442 233.479 24.0542 233.479 25.1982C233.479 26.3682 234.441 27.2782 235.611 27.2782Z" fill="#5C636A"/>
<path d="M245.727 14.0702C243.803 14.0702 242.217 14.6942 240.943 15.9162C239.669 17.1382 239.045 18.6722 239.045 20.5702C239.045 22.4682 239.669 24.0542 240.943 25.3022C242.217 26.5502 243.803 27.1742 245.727 27.1742C247.625 27.1742 249.211 26.5502 250.459 25.3022C251.733 24.0542 252.357 22.4682 252.357 20.5702C252.357 18.6722 251.733 17.1382 250.459 15.9162C249.211 14.6942 247.625 14.0702 245.727 14.0702ZM245.727 23.9502C243.855 23.9502 242.607 22.4682 242.607 20.5702C242.607 18.6982 243.855 17.2942 245.727 17.2942C247.573 17.2942 248.795 18.6982 248.795 20.5702C248.795 22.4682 247.573 23.9502 245.727 23.9502Z" fill="#5C636A"/>
<path d="M258.313 14.3302H254.699V26.7842H258.313V19.3482C259.327 18.2302 260.783 17.6322 262.681 17.5542V14.1222C260.939 14.1222 259.483 14.6682 258.313 15.7342V14.3302Z" fill="#5C636A"/>
<path d="M277.446 14.3302H273.858V14.8242C272.844 14.1742 271.648 13.8362 270.322 13.8362C268.58 13.8362 267.124 14.4342 265.902 15.6302C264.706 16.8262 264.108 18.3602 264.108 20.2062C264.108 21.8442 264.706 23.2482 265.928 24.4702C267.15 25.6922 268.632 26.2902 270.322 26.2902C271.648 26.2902 272.844 25.9522 273.858 25.3022V26.6542C273.858 28.5262 272.662 29.6442 270.998 29.6442C269.308 29.6442 268.268 28.8122 268.086 27.4862H264.446C264.576 29.0722 265.252 30.3722 266.474 31.3602C267.696 32.3742 269.204 32.8682 270.998 32.8682C272.922 32.8682 274.482 32.2962 275.652 31.1782C276.848 30.0602 277.446 28.5522 277.446 26.6282V14.3302ZM270.92 23.2482C270.01 23.2482 269.256 22.9362 268.632 22.3122C268.008 21.6622 267.696 20.9602 267.696 20.2062C267.696 18.2562 269.022 16.9042 270.92 16.9042C272.168 16.9042 273.156 17.3982 273.858 18.3862V21.7402C273.156 22.7542 272.168 23.2482 270.92 23.2482Z" fill="#5C636A"/>
<path d="M15 6.84692V29.5969C20.5312 25.5032 23.75 19.1594 23.75 12.1907V10.0969L15 6.84692Z" fill="#D0D4D8"/>
<path fill-rule="evenodd" clip-rule="evenodd" d="M14.4767 36.8198C14.6498 36.9236 14.8229 36.9588 14.996 36.9593C14.9974 36.9593 14.9988 36.9593 15.0002 36.9593C15.1746 36.9593 15.3491 36.9244 15.5235 36.8198C16.7444 36.1221 17.8956 35.3198 18.977 34.4477C19.4305 34.0988 19.5002 33.4361 19.1514 32.9826C18.8026 32.5291 18.1398 32.4593 17.6863 32.8081C16.8337 33.4844 15.9315 34.111 15.0006 34.6881C6.90852 29.6496 2.09302 21.0226 2.09302 11.4593V6.92442L15 2.14535L27.8721 6.9593V11.4942C27.8721 14.0407 27.5581 16.5523 26.8605 18.9593C26.7209 19.5174 27.0349 20.1105 27.593 20.25C28.1512 20.3895 28.7442 20.0756 28.8837 19.5174C29.6163 16.9012 30 14.1802 30 11.4593V6.19186C30 5.77326 29.7209 5.35465 29.3023 5.21512L15.3837 0.0523256C15.1395 -0.0174419 14.8953 -0.0174419 14.6512 0.0523256L0.697674 5.21512C0.27907 5.35465 0 5.73837 0 6.19186V11.4593C0 21.9593 5.40698 31.4477 14.4767 36.8198Z" fill="#53A73E"/>
<path d="M14.9998 30.5344C14.8123 30.5344 14.5935 30.4719 14.4373 30.3469C9.4685 26.6907 6.31225 21.2844 5.49975 15.1907C5.43725 14.6907 5.781 14.2219 6.31225 14.1282C6.81225 14.0657 7.281 14.4094 7.37475 14.9407C8.0935 20.2844 10.781 25.0344 14.9998 28.3782C19.9685 24.4407 22.8123 18.5657 22.8123 12.1594V10.7219L14.9998 7.84692L6.56225 10.9719C6.06225 11.1594 5.531 10.9094 5.3435 10.4094C5.156 9.90942 5.406 9.37817 5.906 9.19067L14.6873 5.97192C14.906 5.90942 15.1248 5.90942 15.3435 5.97192L24.0935 9.22192C24.4685 9.34692 24.7185 9.72192 24.7185 10.0969V12.1907C24.7185 19.4407 21.406 26.0657 15.5935 30.3469C15.406 30.4719 15.1873 30.5344 14.9998 30.5344Z" fill="#A0AAB3"/>
<circle cx="26.5" cy="28.2844" r="5.5" fill="#53A73E"/>
<mask id="mask0" mask-type="alpha" maskUnits="userSpaceOnUse" x="21" y="22" width="11" height="12">
<circle cx="26.5" cy="28.2844" r="5.5" fill="#0D6EB6"/>
</mask>
<g mask="url(#mask0)">
<path d="M24.6664 26.5344C24.3539 26.1282 23.7601 26.0657 23.3539 26.3782C22.9476 26.6907 22.8851 27.2844 23.1976 27.6907L25.3851 30.5032C25.5414 30.7219 25.8226 30.8469 26.1039 30.8782H26.1351C26.4164 30.8782 26.6664 30.7532 26.8226 30.5657L31.5414 25.2532C31.2289 24.6907 30.8226 24.1907 30.3539 23.7844L26.1664 28.4719L24.6664 26.5344Z" fill="white"/>
</g>
</svg>
